<mxfile host="app.diagrams.net" agent="Mozilla/5.0 (Windows NT 10.0; Win64; x64) AppleWebKit/537.36 (KHTML, like Gecko) Chrome/136.0.0.0 Safari/537.36 Edg/136.0.0.0" version="27.0.6">
  <diagram name="第 1 页" id="5JOIRXoUoZJOksVrDLwO">
    <mxGraphModel dx="3104" dy="1280" grid="1" gridSize="10" guides="1" tooltips="1" connect="1" arrows="1" fold="1" page="0" pageScale="1" pageWidth="827" pageHeight="1169" math="0" shadow="0">
      <root>
        <mxCell id="0" />
        <mxCell id="1" parent="0" />
        <mxCell id="tz-ymDiK2UQEO57E_Tiu-149" value="" style="rounded=0;whiteSpace=wrap;html=1;" vertex="1" parent="1">
          <mxGeometry x="280" y="330" width="180" height="180" as="geometry" />
        </mxCell>
        <mxCell id="tz-ymDiK2UQEO57E_Tiu-147" value="" style="rounded=0;whiteSpace=wrap;html=1;" vertex="1" parent="1">
          <mxGeometry x="540" y="1150" width="180" height="170" as="geometry" />
        </mxCell>
        <mxCell id="tz-ymDiK2UQEO57E_Tiu-143" value="" style="rounded=0;whiteSpace=wrap;html=1;" vertex="1" parent="1">
          <mxGeometry x="-110" y="1300" width="180" height="140" as="geometry" />
        </mxCell>
        <mxCell id="tz-ymDiK2UQEO57E_Tiu-141" value="" style="rounded=0;whiteSpace=wrap;html=1;" vertex="1" parent="1">
          <mxGeometry x="-500" y="1060" width="180" height="130" as="geometry" />
        </mxCell>
        <mxCell id="tz-ymDiK2UQEO57E_Tiu-100" value="" style="rounded=0;whiteSpace=wrap;html=1;" vertex="1" parent="1">
          <mxGeometry x="560" y="500" width="180" height="140" as="geometry" />
        </mxCell>
        <mxCell id="tz-ymDiK2UQEO57E_Tiu-1" value="User" style="swimlane;childLayout=stackLayout;horizontal=1;startSize=50;horizontalStack=0;rounded=1;fontSize=14;fontStyle=0;strokeWidth=2;resizeParent=0;resizeLast=1;shadow=0;dashed=0;align=center;arcSize=4;whiteSpace=wrap;html=1;" vertex="1" parent="1">
          <mxGeometry x="-60" y="830" width="160" height="180" as="geometry" />
        </mxCell>
        <mxCell id="tz-ymDiK2UQEO57E_Tiu-2" value="&lt;u&gt;userId&lt;/u&gt;&lt;div&gt;account&lt;/div&gt;&lt;div&gt;passwordHash&lt;/div&gt;&lt;div&gt;status&lt;/div&gt;&lt;div&gt;createAt&lt;/div&gt;&lt;div&gt;deleteAt&lt;/div&gt;&lt;div&gt;lastLoginAt&lt;/div&gt;&lt;div&gt;lastLoginIp&lt;/div&gt;" style="align=left;strokeColor=none;fillColor=none;spacingLeft=4;spacingRight=4;fontSize=12;verticalAlign=top;resizable=0;rotatable=0;part=1;html=1;whiteSpace=wrap;" vertex="1" parent="tz-ymDiK2UQEO57E_Tiu-1">
          <mxGeometry y="50" width="160" height="130" as="geometry" />
        </mxCell>
        <mxCell id="tz-ymDiK2UQEO57E_Tiu-12" value="UserProfiles" style="swimlane;childLayout=stackLayout;horizontal=1;startSize=50;horizontalStack=0;rounded=1;fontSize=14;fontStyle=0;strokeWidth=2;resizeParent=0;resizeLast=1;shadow=0;dashed=0;align=center;arcSize=4;whiteSpace=wrap;html=1;" vertex="1" parent="1">
          <mxGeometry x="-490" y="830" width="160" height="150" as="geometry" />
        </mxCell>
        <mxCell id="tz-ymDiK2UQEO57E_Tiu-13" value="&lt;u&gt;userId&lt;/u&gt;&lt;div&gt;nickname&lt;/div&gt;&lt;div&gt;avatarUrl&lt;/div&gt;&lt;div&gt;gender&lt;/div&gt;&lt;div&gt;birthday&lt;/div&gt;&lt;div&gt;level&lt;/div&gt;" style="align=left;strokeColor=none;fillColor=none;spacingLeft=4;spacingRight=4;fontSize=12;verticalAlign=top;resizable=0;rotatable=0;part=1;html=1;whiteSpace=wrap;" vertex="1" parent="tz-ymDiK2UQEO57E_Tiu-12">
          <mxGeometry y="50" width="160" height="100" as="geometry" />
        </mxCell>
        <mxCell id="tz-ymDiK2UQEO57E_Tiu-56" style="edgeStyle=orthogonalEdgeStyle;rounded=0;orthogonalLoop=1;jettySize=auto;html=1;exitX=1;exitY=0.5;exitDx=0;exitDy=0;entryX=0;entryY=0.5;entryDx=0;entryDy=0;" edge="1" parent="1" source="tz-ymDiK2UQEO57E_Tiu-14" target="tz-ymDiK2UQEO57E_Tiu-1">
          <mxGeometry relative="1" as="geometry" />
        </mxCell>
        <mxCell id="tz-ymDiK2UQEO57E_Tiu-14" value="has" style="shape=rhombus;perimeter=rhombusPerimeter;whiteSpace=wrap;html=1;align=center;" vertex="1" parent="1">
          <mxGeometry x="-260" y="890" width="120" height="60" as="geometry" />
        </mxCell>
        <mxCell id="tz-ymDiK2UQEO57E_Tiu-16" value="Address" style="swimlane;childLayout=stackLayout;horizontal=1;startSize=50;horizontalStack=0;rounded=1;fontSize=14;fontStyle=0;strokeWidth=2;resizeParent=0;resizeLast=1;shadow=0;dashed=0;align=center;arcSize=4;whiteSpace=wrap;html=1;" vertex="1" parent="1">
          <mxGeometry x="-60" y="530" width="160" height="150" as="geometry" />
        </mxCell>
        <mxCell id="tz-ymDiK2UQEO57E_Tiu-17" value="&lt;u&gt;addressId&lt;/u&gt;&lt;div&gt;userId&lt;/div&gt;&lt;div&gt;receiverName&lt;/div&gt;&lt;div&gt;phone&lt;/div&gt;&lt;div&gt;locationDetail&lt;/div&gt;&lt;div&gt;isDefault&lt;/div&gt;" style="align=left;strokeColor=none;fillColor=none;spacingLeft=4;spacingRight=4;fontSize=12;verticalAlign=top;resizable=0;rotatable=0;part=1;html=1;whiteSpace=wrap;" vertex="1" parent="tz-ymDiK2UQEO57E_Tiu-16">
          <mxGeometry y="50" width="160" height="100" as="geometry" />
        </mxCell>
        <mxCell id="tz-ymDiK2UQEO57E_Tiu-18" value="Merchant" style="swimlane;childLayout=stackLayout;horizontal=1;startSize=50;horizontalStack=0;rounded=1;fontSize=14;fontStyle=0;strokeWidth=2;resizeParent=0;resizeLast=1;shadow=0;dashed=0;align=center;arcSize=4;whiteSpace=wrap;html=1;" vertex="1" parent="1">
          <mxGeometry x="150" y="1450" width="160" height="135" as="geometry" />
        </mxCell>
        <mxCell id="tz-ymDiK2UQEO57E_Tiu-19" value="&lt;u&gt;merchantId&lt;/u&gt;&lt;div&gt;merchantName&lt;/div&gt;&lt;div&gt;status&lt;/div&gt;&lt;div&gt;contactInfo&lt;/div&gt;&lt;div&gt;location&lt;/div&gt;" style="align=left;strokeColor=none;fillColor=none;spacingLeft=4;spacingRight=4;fontSize=12;verticalAlign=top;resizable=0;rotatable=0;part=1;html=1;whiteSpace=wrap;" vertex="1" parent="tz-ymDiK2UQEO57E_Tiu-18">
          <mxGeometry y="50" width="160" height="85" as="geometry" />
        </mxCell>
        <mxCell id="tz-ymDiK2UQEO57E_Tiu-26" value="Category" style="swimlane;childLayout=stackLayout;horizontal=1;startSize=50;horizontalStack=0;rounded=1;fontSize=14;fontStyle=0;strokeWidth=2;resizeParent=0;resizeLast=1;shadow=0;dashed=0;align=center;arcSize=4;whiteSpace=wrap;html=1;" vertex="1" parent="1">
          <mxGeometry x="-890" y="1330" width="160" height="120" as="geometry" />
        </mxCell>
        <mxCell id="tz-ymDiK2UQEO57E_Tiu-27" value="&lt;u&gt;categoryId&lt;/u&gt;&lt;div&gt;categoryName&lt;/div&gt;&lt;div&gt;parentId&lt;/div&gt;&lt;div&gt;sortOrder&lt;/div&gt;" style="align=left;strokeColor=none;fillColor=none;spacingLeft=4;spacingRight=4;fontSize=12;verticalAlign=top;resizable=0;rotatable=0;part=1;html=1;whiteSpace=wrap;" vertex="1" parent="tz-ymDiK2UQEO57E_Tiu-26">
          <mxGeometry y="50" width="160" height="70" as="geometry" />
        </mxCell>
        <mxCell id="tz-ymDiK2UQEO57E_Tiu-28" value="Dish" style="swimlane;childLayout=stackLayout;horizontal=1;startSize=50;horizontalStack=0;rounded=1;fontSize=14;fontStyle=0;strokeWidth=2;resizeParent=0;resizeLast=1;shadow=0;dashed=0;align=center;arcSize=4;whiteSpace=wrap;html=1;" vertex="1" parent="1">
          <mxGeometry x="-490" y="1300" width="160" height="195" as="geometry" />
        </mxCell>
        <mxCell id="tz-ymDiK2UQEO57E_Tiu-29" value="&lt;u&gt;dishId&lt;/u&gt;&lt;div&gt;merchantId&lt;/div&gt;&lt;div&gt;categoryId&lt;/div&gt;&lt;div&gt;dishName&lt;/div&gt;&lt;div&gt;price&lt;/div&gt;&lt;div&gt;coverUrl&lt;/div&gt;&lt;div&gt;monthlySales&lt;/div&gt;&lt;div&gt;rating&lt;/div&gt;&lt;div&gt;onSale&lt;/div&gt;" style="align=left;strokeColor=none;fillColor=none;spacingLeft=4;spacingRight=4;fontSize=12;verticalAlign=top;resizable=0;rotatable=0;part=1;html=1;whiteSpace=wrap;" vertex="1" parent="tz-ymDiK2UQEO57E_Tiu-28">
          <mxGeometry y="50" width="160" height="145" as="geometry" />
        </mxCell>
        <mxCell id="tz-ymDiK2UQEO57E_Tiu-32" value="Favorite" style="swimlane;childLayout=stackLayout;horizontal=1;startSize=50;horizontalStack=0;rounded=1;fontSize=14;fontStyle=0;strokeWidth=2;resizeParent=0;resizeLast=1;shadow=0;dashed=0;align=center;arcSize=4;whiteSpace=wrap;html=1;" vertex="1" parent="1">
          <mxGeometry x="-490" y="1070" width="160" height="105" as="geometry" />
        </mxCell>
        <mxCell id="tz-ymDiK2UQEO57E_Tiu-33" value="&lt;u&gt;userId&lt;/u&gt;&lt;div&gt;&lt;u&gt;dishId&lt;/u&gt;&lt;/div&gt;&lt;div&gt;favorAt&lt;/div&gt;" style="align=left;strokeColor=none;fillColor=none;spacingLeft=4;spacingRight=4;fontSize=12;verticalAlign=top;resizable=0;rotatable=0;part=1;html=1;whiteSpace=wrap;" vertex="1" parent="tz-ymDiK2UQEO57E_Tiu-32">
          <mxGeometry y="50" width="160" height="55" as="geometry" />
        </mxCell>
        <mxCell id="tz-ymDiK2UQEO57E_Tiu-34" value="CartItem" style="swimlane;childLayout=stackLayout;horizontal=1;startSize=50;horizontalStack=0;rounded=1;fontSize=14;fontStyle=0;strokeWidth=2;resizeParent=0;resizeLast=1;shadow=0;dashed=0;align=center;arcSize=4;whiteSpace=wrap;html=1;" vertex="1" parent="1">
          <mxGeometry x="-100" y="1307.5" width="160" height="120" as="geometry" />
        </mxCell>
        <mxCell id="tz-ymDiK2UQEO57E_Tiu-35" value="&lt;u&gt;cartItemId&lt;/u&gt;&lt;div&gt;userId&lt;/div&gt;&lt;div&gt;dishId&lt;/div&gt;&lt;div&gt;addAt&lt;/div&gt;" style="align=left;strokeColor=none;fillColor=none;spacingLeft=4;spacingRight=4;fontSize=12;verticalAlign=top;resizable=0;rotatable=0;part=1;html=1;whiteSpace=wrap;" vertex="1" parent="tz-ymDiK2UQEO57E_Tiu-34">
          <mxGeometry y="50" width="160" height="70" as="geometry" />
        </mxCell>
        <mxCell id="tz-ymDiK2UQEO57E_Tiu-36" value="Order" style="swimlane;childLayout=stackLayout;horizontal=1;startSize=50;horizontalStack=0;rounded=1;fontSize=14;fontStyle=0;strokeWidth=2;resizeParent=0;resizeLast=1;shadow=0;dashed=0;align=center;arcSize=4;whiteSpace=wrap;html=1;" vertex="1" parent="1">
          <mxGeometry x="360" y="840" width="160" height="160" as="geometry" />
        </mxCell>
        <mxCell id="tz-ymDiK2UQEO57E_Tiu-37" value="&lt;div&gt;&lt;u&gt;orderId&lt;/u&gt;&lt;/div&gt;userId&lt;div&gt;addressId&lt;/div&gt;&lt;div&gt;orderAmount&lt;/div&gt;&lt;div&gt;createAt&lt;/div&gt;&lt;div&gt;orderStatus&lt;/div&gt;" style="align=left;strokeColor=none;fillColor=none;spacingLeft=4;spacingRight=4;fontSize=12;verticalAlign=top;resizable=0;rotatable=0;part=1;html=1;whiteSpace=wrap;" vertex="1" parent="tz-ymDiK2UQEO57E_Tiu-36">
          <mxGeometry y="50" width="160" height="110" as="geometry" />
        </mxCell>
        <mxCell id="tz-ymDiK2UQEO57E_Tiu-38" value="OrderItem" style="swimlane;childLayout=stackLayout;horizontal=1;startSize=50;horizontalStack=0;rounded=1;fontSize=14;fontStyle=0;strokeWidth=2;resizeParent=0;resizeLast=1;shadow=0;align=center;arcSize=4;whiteSpace=wrap;html=1;" vertex="1" parent="1">
          <mxGeometry x="570" y="510" width="160" height="120" as="geometry" />
        </mxCell>
        <mxCell id="tz-ymDiK2UQEO57E_Tiu-39" value="&lt;div&gt;&lt;u&gt;orderId&lt;/u&gt;&lt;/div&gt;&lt;div&gt;&lt;u&gt;dishId&lt;/u&gt;&lt;/div&gt;&lt;div&gt;quantity&lt;/div&gt;&lt;div&gt;priceAtPurchase&lt;/div&gt;" style="align=left;strokeColor=none;fillColor=none;spacingLeft=4;spacingRight=4;fontSize=12;verticalAlign=top;resizable=0;rotatable=0;part=1;html=1;whiteSpace=wrap;" vertex="1" parent="tz-ymDiK2UQEO57E_Tiu-38">
          <mxGeometry y="50" width="160" height="70" as="geometry" />
        </mxCell>
        <mxCell id="tz-ymDiK2UQEO57E_Tiu-40" value="OrderLog" style="swimlane;childLayout=stackLayout;horizontal=1;startSize=50;horizontalStack=0;rounded=1;fontSize=14;fontStyle=0;strokeWidth=2;resizeParent=0;resizeLast=1;shadow=0;dashed=0;align=center;arcSize=4;whiteSpace=wrap;html=1;" vertex="1" parent="1">
          <mxGeometry x="550" y="1160" width="160" height="150" as="geometry" />
        </mxCell>
        <mxCell id="tz-ymDiK2UQEO57E_Tiu-41" value="&lt;u&gt;logId&lt;/u&gt;&lt;div&gt;orderId&lt;/div&gt;&lt;div&gt;statusCode&lt;/div&gt;&lt;div&gt;loggedAt&lt;/div&gt;&lt;div&gt;actor&lt;/div&gt;&lt;div&gt;remark&lt;/div&gt;" style="align=left;strokeColor=none;fillColor=none;spacingLeft=4;spacingRight=4;fontSize=12;verticalAlign=top;resizable=0;rotatable=0;part=1;html=1;whiteSpace=wrap;" vertex="1" parent="tz-ymDiK2UQEO57E_Tiu-40">
          <mxGeometry y="50" width="160" height="100" as="geometry" />
        </mxCell>
        <mxCell id="tz-ymDiK2UQEO57E_Tiu-42" value="Payment" style="swimlane;childLayout=stackLayout;horizontal=1;startSize=50;horizontalStack=0;rounded=1;fontSize=14;fontStyle=0;strokeWidth=2;resizeParent=0;resizeLast=1;shadow=0;dashed=0;align=center;arcSize=4;whiteSpace=wrap;html=1;" vertex="1" parent="1">
          <mxGeometry x="820" y="970" width="160" height="150" as="geometry" />
        </mxCell>
        <mxCell id="tz-ymDiK2UQEO57E_Tiu-43" value="&lt;u&gt;payId&lt;/u&gt;&lt;div&gt;orderId&lt;/div&gt;&lt;div&gt;channel&lt;/div&gt;&lt;div&gt;payAmount&lt;/div&gt;&lt;div&gt;payStatus&lt;/div&gt;&lt;div&gt;payTime&lt;/div&gt;" style="align=left;strokeColor=none;fillColor=none;spacingLeft=4;spacingRight=4;fontSize=12;verticalAlign=top;resizable=0;rotatable=0;part=1;html=1;whiteSpace=wrap;" vertex="1" parent="tz-ymDiK2UQEO57E_Tiu-42">
          <mxGeometry y="50" width="160" height="100" as="geometry" />
        </mxCell>
        <mxCell id="tz-ymDiK2UQEO57E_Tiu-44" value="Refund" style="swimlane;childLayout=stackLayout;horizontal=1;startSize=50;horizontalStack=0;rounded=1;fontSize=14;fontStyle=0;strokeWidth=2;resizeParent=0;resizeLast=1;shadow=0;dashed=0;align=center;arcSize=4;whiteSpace=wrap;html=1;" vertex="1" parent="1">
          <mxGeometry x="820" y="680" width="160" height="180" as="geometry" />
        </mxCell>
        <mxCell id="tz-ymDiK2UQEO57E_Tiu-45" value="&lt;u&gt;refundId&lt;/u&gt;&lt;div&gt;orderId&lt;/div&gt;&lt;div&gt;applicationId&lt;/div&gt;&lt;div&gt;reason&lt;/div&gt;&lt;div&gt;refundAmount&lt;/div&gt;&lt;div&gt;applyAt&lt;/div&gt;&lt;div&gt;audisStatus&lt;/div&gt;&lt;div&gt;finishAt&lt;/div&gt;&lt;div&gt;&lt;u&gt;&lt;br&gt;&lt;/u&gt;&lt;/div&gt;" style="align=left;strokeColor=none;fillColor=none;spacingLeft=4;spacingRight=4;fontSize=12;verticalAlign=top;resizable=0;rotatable=0;part=1;html=1;whiteSpace=wrap;" vertex="1" parent="tz-ymDiK2UQEO57E_Tiu-44">
          <mxGeometry y="50" width="160" height="130" as="geometry" />
        </mxCell>
        <mxCell id="tz-ymDiK2UQEO57E_Tiu-46" value="Review" style="swimlane;childLayout=stackLayout;horizontal=1;startSize=50;horizontalStack=0;rounded=1;fontSize=14;fontStyle=0;strokeWidth=2;resizeParent=0;resizeLast=1;shadow=0;dashed=0;align=center;arcSize=4;whiteSpace=wrap;html=1;" vertex="1" parent="1">
          <mxGeometry x="290" y="340" width="160" height="160" as="geometry" />
        </mxCell>
        <mxCell id="tz-ymDiK2UQEO57E_Tiu-47" value="&lt;div&gt;&lt;u&gt;reviewId&lt;/u&gt;&lt;/div&gt;&lt;div&gt;orderItemId&lt;/div&gt;&lt;div&gt;userId&lt;/div&gt;&lt;div&gt;rating&lt;/div&gt;&lt;div&gt;content&lt;/div&gt;&lt;div&gt;isAnonymous&lt;/div&gt;&lt;div&gt;reviewAt&lt;/div&gt;" style="align=left;strokeColor=none;fillColor=none;spacingLeft=4;spacingRight=4;fontSize=12;verticalAlign=top;resizable=0;rotatable=0;part=1;html=1;whiteSpace=wrap;" vertex="1" parent="tz-ymDiK2UQEO57E_Tiu-46">
          <mxGeometry y="50" width="160" height="110" as="geometry" />
        </mxCell>
        <mxCell id="tz-ymDiK2UQEO57E_Tiu-48" value="Complaint" style="swimlane;childLayout=stackLayout;horizontal=1;startSize=50;horizontalStack=0;rounded=1;fontSize=14;fontStyle=0;strokeWidth=2;resizeParent=0;resizeLast=1;shadow=0;dashed=0;align=center;arcSize=4;whiteSpace=wrap;html=1;" vertex="1" parent="1">
          <mxGeometry x="160" y="1160" width="160" height="150" as="geometry" />
        </mxCell>
        <mxCell id="tz-ymDiK2UQEO57E_Tiu-49" value="&lt;div&gt;&lt;u&gt;complaintId&lt;/u&gt;&lt;/div&gt;&lt;div&gt;orderId&lt;/div&gt;&lt;div&gt;complaintId&lt;/div&gt;&lt;div&gt;role&lt;/div&gt;&lt;div&gt;description&lt;/div&gt;&lt;div&gt;status&lt;/div&gt;" style="align=left;strokeColor=none;fillColor=none;spacingLeft=4;spacingRight=4;fontSize=12;verticalAlign=top;resizable=0;rotatable=0;part=1;html=1;whiteSpace=wrap;" vertex="1" parent="tz-ymDiK2UQEO57E_Tiu-48">
          <mxGeometry y="50" width="160" height="100" as="geometry" />
        </mxCell>
        <mxCell id="tz-ymDiK2UQEO57E_Tiu-57" style="edgeStyle=orthogonalEdgeStyle;rounded=0;orthogonalLoop=1;jettySize=auto;html=1;exitX=0;exitY=0.5;exitDx=0;exitDy=0;entryX=0.985;entryY=0.395;entryDx=0;entryDy=0;entryPerimeter=0;" edge="1" parent="1" source="tz-ymDiK2UQEO57E_Tiu-14" target="tz-ymDiK2UQEO57E_Tiu-13">
          <mxGeometry relative="1" as="geometry" />
        </mxCell>
        <mxCell id="tz-ymDiK2UQEO57E_Tiu-59" style="edgeStyle=orthogonalEdgeStyle;rounded=0;orthogonalLoop=1;jettySize=auto;html=1;entryX=0.5;entryY=1;entryDx=0;entryDy=0;endArrow=none;startFill=0;" edge="1" parent="1" source="tz-ymDiK2UQEO57E_Tiu-58" target="tz-ymDiK2UQEO57E_Tiu-16">
          <mxGeometry relative="1" as="geometry" />
        </mxCell>
        <mxCell id="tz-ymDiK2UQEO57E_Tiu-60" style="edgeStyle=orthogonalEdgeStyle;rounded=0;orthogonalLoop=1;jettySize=auto;html=1;entryX=0.5;entryY=0;entryDx=0;entryDy=0;" edge="1" parent="1" source="tz-ymDiK2UQEO57E_Tiu-58" target="tz-ymDiK2UQEO57E_Tiu-1">
          <mxGeometry relative="1" as="geometry" />
        </mxCell>
        <mxCell id="tz-ymDiK2UQEO57E_Tiu-58" value="owns" style="shape=rhombus;perimeter=rhombusPerimeter;whiteSpace=wrap;html=1;align=center;" vertex="1" parent="1">
          <mxGeometry x="-40" y="720" width="120" height="60" as="geometry" />
        </mxCell>
        <mxCell id="tz-ymDiK2UQEO57E_Tiu-66" style="edgeStyle=orthogonalEdgeStyle;rounded=0;orthogonalLoop=1;jettySize=auto;html=1;exitX=1;exitY=0.5;exitDx=0;exitDy=0;entryX=0;entryY=0.5;entryDx=0;entryDy=0;endArrow=none;startFill=0;" edge="1" parent="1" source="tz-ymDiK2UQEO57E_Tiu-64" target="tz-ymDiK2UQEO57E_Tiu-36">
          <mxGeometry relative="1" as="geometry" />
        </mxCell>
        <mxCell id="tz-ymDiK2UQEO57E_Tiu-64" value="places" style="shape=rhombus;perimeter=rhombusPerimeter;whiteSpace=wrap;html=1;align=center;" vertex="1" parent="1">
          <mxGeometry x="160" y="890" width="120" height="60" as="geometry" />
        </mxCell>
        <mxCell id="tz-ymDiK2UQEO57E_Tiu-65" style="edgeStyle=orthogonalEdgeStyle;rounded=0;orthogonalLoop=1;jettySize=auto;html=1;entryX=0.992;entryY=0.31;entryDx=0;entryDy=0;entryPerimeter=0;" edge="1" parent="1" source="tz-ymDiK2UQEO57E_Tiu-64" target="tz-ymDiK2UQEO57E_Tiu-2">
          <mxGeometry relative="1" as="geometry" />
        </mxCell>
        <mxCell id="tz-ymDiK2UQEO57E_Tiu-72" style="edgeStyle=orthogonalEdgeStyle;rounded=0;orthogonalLoop=1;jettySize=auto;html=1;exitX=0.5;exitY=1;exitDx=0;exitDy=0;entryX=0;entryY=0.5;entryDx=0;entryDy=0;endArrow=none;startFill=0;" edge="1" parent="1" source="tz-ymDiK2UQEO57E_Tiu-67" target="tz-ymDiK2UQEO57E_Tiu-48">
          <mxGeometry relative="1" as="geometry" />
        </mxCell>
        <mxCell id="tz-ymDiK2UQEO57E_Tiu-74" style="edgeStyle=orthogonalEdgeStyle;rounded=0;orthogonalLoop=1;jettySize=auto;html=1;exitX=0.5;exitY=0;exitDx=0;exitDy=0;entryX=0.5;entryY=1;entryDx=0;entryDy=0;" edge="1" parent="1" source="tz-ymDiK2UQEO57E_Tiu-67" target="tz-ymDiK2UQEO57E_Tiu-2">
          <mxGeometry relative="1" as="geometry" />
        </mxCell>
        <mxCell id="tz-ymDiK2UQEO57E_Tiu-67" value="files" style="shape=rhombus;perimeter=rhombusPerimeter;whiteSpace=wrap;html=1;align=center;" vertex="1" parent="1">
          <mxGeometry x="30" y="1060" width="120" height="60" as="geometry" />
        </mxCell>
        <mxCell id="tz-ymDiK2UQEO57E_Tiu-76" style="edgeStyle=orthogonalEdgeStyle;rounded=0;orthogonalLoop=1;jettySize=auto;html=1;entryX=1;entryY=0.25;entryDx=0;entryDy=0;endArrow=none;endFill=1;startFill=0;shape=link;" edge="1" parent="1" source="tz-ymDiK2UQEO57E_Tiu-68" target="tz-ymDiK2UQEO57E_Tiu-49">
          <mxGeometry relative="1" as="geometry" />
        </mxCell>
        <mxCell id="tz-ymDiK2UQEO57E_Tiu-68" value="targets" style="shape=rhombus;perimeter=rhombusPerimeter;whiteSpace=wrap;html=1;align=center;" vertex="1" parent="1">
          <mxGeometry x="310" y="1060" width="120" height="60" as="geometry" />
        </mxCell>
        <mxCell id="tz-ymDiK2UQEO57E_Tiu-84" style="edgeStyle=orthogonalEdgeStyle;rounded=0;orthogonalLoop=1;jettySize=auto;html=1;shape=link;exitX=0.5;exitY=1;exitDx=0;exitDy=0;entryX=0;entryY=0.5;entryDx=0;entryDy=0;" edge="1" parent="1" source="tz-ymDiK2UQEO57E_Tiu-146" target="tz-ymDiK2UQEO57E_Tiu-147">
          <mxGeometry relative="1" as="geometry">
            <mxPoint x="500" y="1120" as="sourcePoint" />
            <mxPoint x="540" y="1235" as="targetPoint" />
          </mxGeometry>
        </mxCell>
        <mxCell id="tz-ymDiK2UQEO57E_Tiu-82" style="edgeStyle=orthogonalEdgeStyle;rounded=0;orthogonalLoop=1;jettySize=auto;html=1;entryX=0.29;entryY=1;entryDx=0;entryDy=0;entryPerimeter=0;" edge="1" parent="1" source="tz-ymDiK2UQEO57E_Tiu-68" target="tz-ymDiK2UQEO57E_Tiu-37">
          <mxGeometry relative="1" as="geometry" />
        </mxCell>
        <mxCell id="tz-ymDiK2UQEO57E_Tiu-86" style="edgeStyle=orthogonalEdgeStyle;rounded=0;orthogonalLoop=1;jettySize=auto;html=1;entryX=0.625;entryY=1;entryDx=0;entryDy=0;entryPerimeter=0;" edge="1" parent="1" target="tz-ymDiK2UQEO57E_Tiu-37">
          <mxGeometry relative="1" as="geometry">
            <mxPoint x="500" y="1060" as="sourcePoint" />
          </mxGeometry>
        </mxCell>
        <mxCell id="tz-ymDiK2UQEO57E_Tiu-90" style="edgeStyle=orthogonalEdgeStyle;rounded=0;orthogonalLoop=1;jettySize=auto;html=1;exitX=1;exitY=0.5;exitDx=0;exitDy=0;" edge="1" parent="1" source="tz-ymDiK2UQEO57E_Tiu-87" target="tz-ymDiK2UQEO57E_Tiu-43">
          <mxGeometry relative="1" as="geometry" />
        </mxCell>
        <mxCell id="tz-ymDiK2UQEO57E_Tiu-87" value="paid_by" style="shape=rhombus;perimeter=rhombusPerimeter;whiteSpace=wrap;html=1;align=center;" vertex="1" parent="1">
          <mxGeometry x="590" y="960" width="120" height="60" as="geometry" />
        </mxCell>
        <mxCell id="tz-ymDiK2UQEO57E_Tiu-89" style="edgeStyle=orthogonalEdgeStyle;rounded=0;orthogonalLoop=1;jettySize=auto;html=1;entryX=1.001;entryY=0.702;entryDx=0;entryDy=0;entryPerimeter=0;" edge="1" parent="1" source="tz-ymDiK2UQEO57E_Tiu-87" target="tz-ymDiK2UQEO57E_Tiu-37">
          <mxGeometry relative="1" as="geometry" />
        </mxCell>
        <mxCell id="tz-ymDiK2UQEO57E_Tiu-93" style="edgeStyle=orthogonalEdgeStyle;rounded=0;orthogonalLoop=1;jettySize=auto;html=1;entryX=0;entryY=0.5;entryDx=0;entryDy=0;" edge="1" parent="1" source="tz-ymDiK2UQEO57E_Tiu-91" target="tz-ymDiK2UQEO57E_Tiu-45">
          <mxGeometry relative="1" as="geometry" />
        </mxCell>
        <mxCell id="tz-ymDiK2UQEO57E_Tiu-91" value="may_have" style="shape=rhombus;perimeter=rhombusPerimeter;whiteSpace=wrap;html=1;align=center;" vertex="1" parent="1">
          <mxGeometry x="590" y="840" width="120" height="60" as="geometry" />
        </mxCell>
        <mxCell id="tz-ymDiK2UQEO57E_Tiu-92" style="edgeStyle=orthogonalEdgeStyle;rounded=0;orthogonalLoop=1;jettySize=auto;html=1;entryX=0.984;entryY=0.092;entryDx=0;entryDy=0;entryPerimeter=0;" edge="1" parent="1" source="tz-ymDiK2UQEO57E_Tiu-91" target="tz-ymDiK2UQEO57E_Tiu-37">
          <mxGeometry relative="1" as="geometry" />
        </mxCell>
        <mxCell id="tz-ymDiK2UQEO57E_Tiu-101" style="edgeStyle=orthogonalEdgeStyle;rounded=0;orthogonalLoop=1;jettySize=auto;html=1;exitX=0.5;exitY=0;exitDx=0;exitDy=0;entryX=0.5;entryY=1;entryDx=0;entryDy=0;" edge="1" parent="1" source="tz-ymDiK2UQEO57E_Tiu-97" target="tz-ymDiK2UQEO57E_Tiu-100">
          <mxGeometry relative="1" as="geometry" />
        </mxCell>
        <mxCell id="tz-ymDiK2UQEO57E_Tiu-103" style="edgeStyle=orthogonalEdgeStyle;rounded=0;orthogonalLoop=1;jettySize=auto;html=1;entryX=0.5;entryY=0;entryDx=0;entryDy=0;exitX=0.5;exitY=1;exitDx=0;exitDy=0;" edge="1" parent="1" source="tz-ymDiK2UQEO57E_Tiu-97">
          <mxGeometry relative="1" as="geometry">
            <mxPoint x="690" y="742" as="sourcePoint" />
            <mxPoint x="480" y="840" as="targetPoint" />
          </mxGeometry>
        </mxCell>
        <mxCell id="tz-ymDiK2UQEO57E_Tiu-97" value="includes" style="shape=rhombus;double=1;perimeter=rhombusPerimeter;whiteSpace=wrap;html=1;align=center;" vertex="1" parent="1">
          <mxGeometry x="590" y="682" width="120" height="60" as="geometry" />
        </mxCell>
        <mxCell id="tz-ymDiK2UQEO57E_Tiu-106" style="edgeStyle=orthogonalEdgeStyle;rounded=0;orthogonalLoop=1;jettySize=auto;html=1;exitX=1;exitY=0.5;exitDx=0;exitDy=0;entryX=0.333;entryY=1;entryDx=0;entryDy=0;endArrow=none;startFill=0;entryPerimeter=0;" edge="1" parent="1" source="tz-ymDiK2UQEO57E_Tiu-104" target="tz-ymDiK2UQEO57E_Tiu-149">
          <mxGeometry relative="1" as="geometry">
            <Array as="points">
              <mxPoint x="340" y="660" />
            </Array>
          </mxGeometry>
        </mxCell>
        <mxCell id="tz-ymDiK2UQEO57E_Tiu-104" value="writes" style="shape=rhombus;perimeter=rhombusPerimeter;whiteSpace=wrap;html=1;align=center;" vertex="1" parent="1">
          <mxGeometry x="200" y="630" width="120" height="60" as="geometry" />
        </mxCell>
        <mxCell id="tz-ymDiK2UQEO57E_Tiu-105" style="edgeStyle=orthogonalEdgeStyle;rounded=0;orthogonalLoop=1;jettySize=auto;html=1;exitX=0;exitY=0.5;exitDx=0;exitDy=0;entryX=1;entryY=0.104;entryDx=0;entryDy=0;entryPerimeter=0;" edge="1" parent="1" source="tz-ymDiK2UQEO57E_Tiu-104" target="tz-ymDiK2UQEO57E_Tiu-2">
          <mxGeometry relative="1" as="geometry" />
        </mxCell>
        <mxCell id="tz-ymDiK2UQEO57E_Tiu-109" style="edgeStyle=orthogonalEdgeStyle;rounded=0;orthogonalLoop=1;jettySize=auto;html=1;exitX=0.5;exitY=1;exitDx=0;exitDy=0;entryX=0.5;entryY=0;entryDx=0;entryDy=0;" edge="1" parent="1" target="tz-ymDiK2UQEO57E_Tiu-100">
          <mxGeometry relative="1" as="geometry">
            <mxPoint x="650" y="420" as="sourcePoint" />
          </mxGeometry>
        </mxCell>
        <mxCell id="tz-ymDiK2UQEO57E_Tiu-110" style="edgeStyle=orthogonalEdgeStyle;rounded=0;orthogonalLoop=1;jettySize=auto;html=1;entryX=0.997;entryY=0.65;entryDx=0;entryDy=0;entryPerimeter=0;" edge="1" parent="1" target="tz-ymDiK2UQEO57E_Tiu-149">
          <mxGeometry relative="1" as="geometry">
            <mxPoint x="590" y="390" as="sourcePoint" />
          </mxGeometry>
        </mxCell>
        <mxCell id="tz-ymDiK2UQEO57E_Tiu-115" style="edgeStyle=orthogonalEdgeStyle;rounded=0;orthogonalLoop=1;jettySize=auto;html=1;entryX=0.997;entryY=0.694;entryDx=0;entryDy=0;endArrow=none;startFill=0;entryPerimeter=0;" edge="1" parent="1" source="tz-ymDiK2UQEO57E_Tiu-112" target="tz-ymDiK2UQEO57E_Tiu-141">
          <mxGeometry relative="1" as="geometry" />
        </mxCell>
        <mxCell id="tz-ymDiK2UQEO57E_Tiu-112" value="favors" style="shape=rhombus;perimeter=rhombusPerimeter;whiteSpace=wrap;html=1;align=center;" vertex="1" parent="1">
          <mxGeometry x="-260" y="1010" width="120" height="60" as="geometry" />
        </mxCell>
        <mxCell id="tz-ymDiK2UQEO57E_Tiu-113" style="edgeStyle=orthogonalEdgeStyle;rounded=0;orthogonalLoop=1;jettySize=auto;html=1;entryX=0.003;entryY=0.796;entryDx=0;entryDy=0;entryPerimeter=0;" edge="1" parent="1" source="tz-ymDiK2UQEO57E_Tiu-112" target="tz-ymDiK2UQEO57E_Tiu-2">
          <mxGeometry relative="1" as="geometry" />
        </mxCell>
        <mxCell id="tz-ymDiK2UQEO57E_Tiu-117" style="edgeStyle=orthogonalEdgeStyle;rounded=0;orthogonalLoop=1;jettySize=auto;html=1;exitX=0.5;exitY=1;exitDx=0;exitDy=0;entryX=0.5;entryY=0;entryDx=0;entryDy=0;" edge="1" parent="1" target="tz-ymDiK2UQEO57E_Tiu-28">
          <mxGeometry relative="1" as="geometry">
            <mxPoint x="-409.9999999999998" y="1270" as="sourcePoint" />
          </mxGeometry>
        </mxCell>
        <mxCell id="tz-ymDiK2UQEO57E_Tiu-118" style="edgeStyle=orthogonalEdgeStyle;rounded=0;orthogonalLoop=1;jettySize=auto;html=1;exitX=0.5;exitY=0;exitDx=0;exitDy=0;endArrow=none;startFill=0;" edge="1" parent="1">
          <mxGeometry relative="1" as="geometry">
            <mxPoint x="-409.9999999999998" y="1210" as="sourcePoint" />
            <mxPoint x="-410" y="1190" as="targetPoint" />
          </mxGeometry>
        </mxCell>
        <mxCell id="tz-ymDiK2UQEO57E_Tiu-121" style="edgeStyle=orthogonalEdgeStyle;rounded=0;orthogonalLoop=1;jettySize=auto;html=1;entryX=1;entryY=0.25;entryDx=0;entryDy=0;" edge="1" parent="1" source="tz-ymDiK2UQEO57E_Tiu-120" target="tz-ymDiK2UQEO57E_Tiu-27">
          <mxGeometry relative="1" as="geometry" />
        </mxCell>
        <mxCell id="tz-ymDiK2UQEO57E_Tiu-122" style="edgeStyle=orthogonalEdgeStyle;rounded=0;orthogonalLoop=1;jettySize=auto;html=1;entryX=0;entryY=0.5;entryDx=0;entryDy=0;shape=link;" edge="1" parent="1" source="tz-ymDiK2UQEO57E_Tiu-120" target="tz-ymDiK2UQEO57E_Tiu-28">
          <mxGeometry relative="1" as="geometry" />
        </mxCell>
        <mxCell id="tz-ymDiK2UQEO57E_Tiu-120" value="categorizes" style="shape=rhombus;perimeter=rhombusPerimeter;whiteSpace=wrap;html=1;align=center;" vertex="1" parent="1">
          <mxGeometry x="-670" y="1367.5" width="120" height="60" as="geometry" />
        </mxCell>
        <mxCell id="tz-ymDiK2UQEO57E_Tiu-124" style="edgeStyle=orthogonalEdgeStyle;rounded=0;orthogonalLoop=1;jettySize=auto;html=1;entryX=0;entryY=0.5;entryDx=0;entryDy=0;exitX=0;exitY=0.5;exitDx=0;exitDy=0;" edge="1" parent="1" source="tz-ymDiK2UQEO57E_Tiu-123" target="tz-ymDiK2UQEO57E_Tiu-26">
          <mxGeometry relative="1" as="geometry">
            <Array as="points">
              <mxPoint x="-950" y="1205" />
              <mxPoint x="-950" y="1390" />
            </Array>
          </mxGeometry>
        </mxCell>
        <mxCell id="tz-ymDiK2UQEO57E_Tiu-123" value="subcategorizes" style="shape=rhombus;perimeter=rhombusPerimeter;whiteSpace=wrap;html=1;align=center;" vertex="1" parent="1">
          <mxGeometry x="-870" y="1175" width="120" height="60" as="geometry" />
        </mxCell>
        <mxCell id="tz-ymDiK2UQEO57E_Tiu-125" style="edgeStyle=orthogonalEdgeStyle;rounded=0;orthogonalLoop=1;jettySize=auto;html=1;exitX=1;exitY=0.5;exitDx=0;exitDy=0;entryX=0.996;entryY=0.35;entryDx=0;entryDy=0;entryPerimeter=0;endArrow=none;startFill=0;" edge="1" parent="1" source="tz-ymDiK2UQEO57E_Tiu-123" target="tz-ymDiK2UQEO57E_Tiu-26">
          <mxGeometry relative="1" as="geometry">
            <Array as="points">
              <mxPoint x="-690" y="1205" />
              <mxPoint x="-690" y="1372" />
            </Array>
          </mxGeometry>
        </mxCell>
        <mxCell id="tz-ymDiK2UQEO57E_Tiu-126" value="provides" style="shape=rhombus;perimeter=rhombusPerimeter;whiteSpace=wrap;html=1;align=center;" vertex="1" parent="1">
          <mxGeometry x="-200" y="1500" width="120" height="60" as="geometry" />
        </mxCell>
        <mxCell id="tz-ymDiK2UQEO57E_Tiu-127" style="edgeStyle=orthogonalEdgeStyle;rounded=0;orthogonalLoop=1;jettySize=auto;html=1;entryX=0.004;entryY=0.345;entryDx=0;entryDy=0;entryPerimeter=0;" edge="1" parent="1" source="tz-ymDiK2UQEO57E_Tiu-126" target="tz-ymDiK2UQEO57E_Tiu-19">
          <mxGeometry relative="1" as="geometry" />
        </mxCell>
        <mxCell id="tz-ymDiK2UQEO57E_Tiu-128" style="edgeStyle=orthogonalEdgeStyle;rounded=0;orthogonalLoop=1;jettySize=auto;html=1;entryX=1;entryY=0.699;entryDx=0;entryDy=0;entryPerimeter=0;shape=link;" edge="1" parent="1" source="tz-ymDiK2UQEO57E_Tiu-126" target="tz-ymDiK2UQEO57E_Tiu-29">
          <mxGeometry relative="1" as="geometry" />
        </mxCell>
        <mxCell id="tz-ymDiK2UQEO57E_Tiu-130" value="merchant_order" style="shape=rhombus;perimeter=rhombusPerimeter;whiteSpace=wrap;html=1;align=center;" vertex="1" parent="1">
          <mxGeometry x="370" y="1300" width="120" height="60" as="geometry" />
        </mxCell>
        <mxCell id="tz-ymDiK2UQEO57E_Tiu-131" style="edgeStyle=orthogonalEdgeStyle;rounded=0;orthogonalLoop=1;jettySize=auto;html=1;entryX=1;entryY=0.353;entryDx=0;entryDy=0;entryPerimeter=0;exitX=0.5;exitY=1;exitDx=0;exitDy=0;" edge="1" parent="1" source="tz-ymDiK2UQEO57E_Tiu-130" target="tz-ymDiK2UQEO57E_Tiu-19">
          <mxGeometry relative="1" as="geometry" />
        </mxCell>
        <mxCell id="tz-ymDiK2UQEO57E_Tiu-133" style="edgeStyle=orthogonalEdgeStyle;rounded=0;orthogonalLoop=1;jettySize=auto;html=1;entryX=0.437;entryY=1.033;entryDx=0;entryDy=0;entryPerimeter=0;shape=link;exitX=0.5;exitY=0;exitDx=0;exitDy=0;exitPerimeter=0;" edge="1" parent="1" source="tz-ymDiK2UQEO57E_Tiu-130">
          <mxGeometry relative="1" as="geometry">
            <mxPoint x="430.1432558139537" y="1296.3816279069767" as="sourcePoint" />
            <mxPoint x="430.0400000000001" y="1000.0000000000001" as="targetPoint" />
          </mxGeometry>
        </mxCell>
        <mxCell id="tz-ymDiK2UQEO57E_Tiu-136" style="edgeStyle=orthogonalEdgeStyle;rounded=0;orthogonalLoop=1;jettySize=auto;html=1;entryX=0.25;entryY=1;entryDx=0;entryDy=0;" edge="1" parent="1" target="tz-ymDiK2UQEO57E_Tiu-2">
          <mxGeometry relative="1" as="geometry">
            <mxPoint x="-20" y="1160" as="sourcePoint" />
          </mxGeometry>
        </mxCell>
        <mxCell id="tz-ymDiK2UQEO57E_Tiu-137" style="edgeStyle=orthogonalEdgeStyle;rounded=0;orthogonalLoop=1;jettySize=auto;html=1;endArrow=none;startFill=0;" edge="1" parent="1">
          <mxGeometry relative="1" as="geometry">
            <mxPoint x="-20" y="1220" as="sourcePoint" />
            <mxPoint x="-20" y="1300" as="targetPoint" />
          </mxGeometry>
        </mxCell>
        <mxCell id="tz-ymDiK2UQEO57E_Tiu-138" style="edgeStyle=orthogonalEdgeStyle;rounded=0;orthogonalLoop=1;jettySize=auto;html=1;entryX=0.986;entryY=0.138;entryDx=0;entryDy=0;entryPerimeter=0;endArrow=none;startFill=0;" edge="1" parent="1" target="tz-ymDiK2UQEO57E_Tiu-29">
          <mxGeometry relative="1" as="geometry">
            <mxPoint x="-279.98000000000025" y="1370.0099999999998" as="sourcePoint" />
          </mxGeometry>
        </mxCell>
        <mxCell id="tz-ymDiK2UQEO57E_Tiu-140" style="edgeStyle=orthogonalEdgeStyle;rounded=0;orthogonalLoop=1;jettySize=auto;html=1;endArrow=none;startFill=0;" edge="1" parent="1">
          <mxGeometry relative="1" as="geometry">
            <mxPoint x="-160" y="1370" as="sourcePoint" />
            <mxPoint x="-110" y="1370" as="targetPoint" />
          </mxGeometry>
        </mxCell>
        <mxCell id="tz-ymDiK2UQEO57E_Tiu-142" value="favor_dish" style="shape=rhombus;double=1;perimeter=rhombusPerimeter;whiteSpace=wrap;html=1;align=center;" vertex="1" parent="1">
          <mxGeometry x="-470" y="1210" width="120" height="60" as="geometry" />
        </mxCell>
        <mxCell id="tz-ymDiK2UQEO57E_Tiu-144" value="dish_cart" style="shape=rhombus;double=1;perimeter=rhombusPerimeter;whiteSpace=wrap;html=1;align=center;" vertex="1" parent="1">
          <mxGeometry x="-280" y="1340" width="120" height="60" as="geometry" />
        </mxCell>
        <mxCell id="tz-ymDiK2UQEO57E_Tiu-145" value="adds" style="shape=rhombus;double=1;perimeter=rhombusPerimeter;whiteSpace=wrap;html=1;align=center;" vertex="1" parent="1">
          <mxGeometry x="-80" y="1160" width="120" height="60" as="geometry" />
        </mxCell>
        <mxCell id="tz-ymDiK2UQEO57E_Tiu-146" value="logs" style="shape=rhombus;double=1;perimeter=rhombusPerimeter;whiteSpace=wrap;html=1;align=center;" vertex="1" parent="1">
          <mxGeometry x="440" y="1060" width="120" height="60" as="geometry" />
        </mxCell>
        <mxCell id="tz-ymDiK2UQEO57E_Tiu-148" value="receives" style="shape=rhombus;double=1;perimeter=rhombusPerimeter;whiteSpace=wrap;html=1;align=center;" vertex="1" parent="1">
          <mxGeometry x="590" y="360" width="120" height="60" as="geometry" />
        </mxCell>
      </root>
    </mxGraphModel>
  </diagram>
</mxfile>
